<svg xmlns="http://www.w3.org/2000/svg" width="31.57" height="29.461" viewBox="0 0 31.57 29.461">
  <g id="chat" transform="translate(0 -2.25)">
    <path id="Path_1069" data-name="Path 1069" d="M5.285,23.746a1.973,1.973,0,0,1,.567,1.58,21.646,21.646,0,0,1-.786,3.946,23.292,23.292,0,0,0,5.2-1.762,1.973,1.973,0,0,1,1.4-.146,15.9,15.9,0,0,0,4.123.536C23.67,27.9,29.6,22.362,29.6,16.062S23.67,4.223,15.785,4.223,1.973,9.764,1.973,16.062a10.841,10.841,0,0,0,3.311,7.683Zm-.973,7.7q-.7.139-1.407.254a.513.513,0,0,1-.538-.715q.263-.62.481-1.257l.006-.019a20.634,20.634,0,0,0,1.034-4.576A12.814,12.814,0,0,1,0,16.062C0,8.433,7.067,2.25,15.785,2.25S31.57,8.433,31.57,16.062,24.5,29.874,15.785,29.874a17.877,17.877,0,0,1-4.631-.6,26.977,26.977,0,0,1-6.843,2.18Z" transform="translate(0)" fill-rule="evenodd"/>
    <path id="Path_1073" data-name="Path 1073" d="M6.068,13.7c0,.128.1.214.253.214h.886c.152,0,.253-.086.253-.214v-.748a2.207,2.207,0,0,1,.81-1.882L9.662,9.488a4.085,4.085,0,0,0,1.544-3.079c0-2.053-1.746-3.528-4.353-3.528C4.347,2.88,2.7,4.249,2.348,6.173a.212.212,0,0,0,.2.257l.861.128a.219.219,0,0,0,.278-.171,2.947,2.947,0,0,1,3.139-2.4c1.7,0,2.987.877,2.987,2.416,0,.9-.278,1.5-1.544,2.8L6.878,10.771a2.674,2.674,0,0,0-.81,2.1Zm-.2,3.721c0,.128.1.214.253.214H7.385c.152,0,.253-.086.253-.214V15.989c0-.128-.1-.214-.253-.214H6.119c-.152,0-.253.086-.253.214Z" transform="translate(9.01 5.846)"/>
  </g>
</svg>
