<svg xmlns="http://www.w3.org/2000/svg" width="31.57" height="31.572" viewBox="0 0 31.57 31.572">
  <path id="earth-americas" d="M33.75,18a15.785,15.785,0,1,0-8.032,13.715l.132.029.027-.125A15.748,15.748,0,0,0,33.75,18ZM4.5,18a13.429,13.429,0,0,1,.444-3.375H9.717l5.616,4.68-2.149,2.864a2.26,2.26,0,0,0,.209,2.941l2.357,2.356V31.3A13.511,13.511,0,0,1,4.5,18Zm10.485,5.519,3.431-4.574-7.884-6.57H5.744a13.457,13.457,0,0,1,20-5.416L25.064,9H18.659l-3.423,3.423,10.523,9.352L23.9,30.121A13.391,13.391,0,0,1,18,31.5V26.534Zm11.6,4.887,1.365-6.143a2.25,2.25,0,0,0-.7-2.168l-8.739-7.769,1.077-1.077h5.473A2.248,2.248,0,0,0,27.2,9.71l.4-1.193a13.475,13.475,0,0,1-1.007,19.888Z" transform="translate(-2.18 -2.179)"/>
</svg>
